<svg width="86" height="86" viewBox="0 0 86 86" fill="none" xmlns="http://www.w3.org/2000/svg">
<path d="M82.929 20.0008C83.1671 20.4133 83.399 20.8299 83.6246 21.2503C83.215 20.9823 82.9412 20.5239 82.929 20.0008Z" fill="#FD8EFF"/>
<path d="M74.5202 9.39843C75.2358 10.07 75.93 10.7642 76.6016 11.4798C76.3419 11.9597 75.834 12.2857 75.25 12.2857C74.4018 12.2857 73.7143 11.5982 73.7143 10.75C73.7143 10.166 74.0403 9.65812 74.5202 9.39843Z" fill="#FD8EFF"/>
<path d="M64.7497 2.37539C65.1701 2.60097 65.5867 2.83288 65.9992 3.071C65.4761 3.05879 65.0177 2.78501 64.7497 2.37539Z" fill="#FD8EFF"/>
<path d="M20.0008 3.071C20.4133 2.83288 20.8299 2.60097 21.2503 2.37539C20.9823 2.78501 20.5239 3.05879 20.0008 3.071Z" fill="#FD8EFF"/>
<path d="M9.39843 11.4798C10.07 10.7642 10.7642 10.07 11.4798 9.39843C11.9597 9.65812 12.2857 10.166 12.2857 10.75C12.2857 11.5982 11.5982 12.2857 10.75 12.2857C10.166 12.2857 9.65812 11.9597 9.39843 11.4798Z" fill="#FD8EFF"/>
<path d="M2.37539 21.2503C2.60097 20.8299 2.83288 20.4133 3.071 20.0008C3.05879 20.5239 2.78501 20.9823 2.37539 21.2503Z" fill="#FD8EFF"/>
<path d="M83.6246 64.7497C83.399 65.1701 83.1671 65.5867 82.929 65.9992C82.9412 65.4761 83.215 65.0177 83.6246 64.7497Z" fill="#FD8EFF"/>
<path d="M76.6016 74.5202C76.3419 74.0403 75.834 73.7143 75.25 73.7143C74.4018 73.7143 73.7143 74.4018 73.7143 75.25C73.7143 75.834 74.0403 76.3419 74.5202 76.6016C75.2358 75.93 75.93 75.2358 76.6016 74.5202Z" fill="#FD8EFF"/>
<path d="M65.9992 82.929C65.4761 82.9412 65.0177 83.215 64.7497 83.6246C65.1701 83.399 65.5867 83.1671 65.9992 82.929Z" fill="#FD8EFF"/>
<path d="M21.2503 83.6246C20.9823 83.215 20.5239 82.9412 20.0008 82.929C20.4133 83.1671 20.8299 83.399 21.2503 83.6246Z" fill="#FD8EFF"/>
<path d="M11.4798 76.6016C11.9597 76.3419 12.2857 75.834 12.2857 75.25C12.2857 74.4018 11.5982 73.7143 10.75 73.7143C10.166 73.7143 9.65812 74.0403 9.39843 74.5202C10.07 75.2358 10.7642 75.93 11.4798 76.6016Z" fill="#FD8EFF"/>
<path d="M3.071 65.9992C3.05879 65.4761 2.78501 65.0177 2.37539 64.7497C2.60097 65.1701 2.83288 65.5867 3.071 65.9992Z" fill="#FD8EFF"/>
<path d="M30.7143 1.53571C30.7143 2.38387 30.0267 3.07143 29.1786 3.07143C28.3304 3.07143 27.6429 2.38387 27.6429 1.53571C27.6429 0.687563 28.3304 0 29.1786 0C30.0267 0 30.7143 0.687563 30.7143 1.53571Z" fill="#FD8EFF"/>
<path d="M39.9286 1.53571C39.9286 2.38387 39.241 3.07143 38.3929 3.07143C37.5447 3.07143 36.8571 2.38387 36.8571 1.53571C36.8571 0.687563 37.5447 0 38.3929 0C39.241 0 39.9286 0.687563 39.9286 1.53571Z" fill="#FD8EFF"/>
<path d="M49.1429 1.53571C49.1429 2.38387 48.4553 3.07143 47.6071 3.07143C46.759 3.07143 46.0714 2.38387 46.0714 1.53571C46.0714 0.687563 46.759 0 47.6071 0C48.4553 0 49.1429 0.687563 49.1429 1.53571Z" fill="#FD8EFF"/>
<path d="M58.3571 1.53571C58.3571 2.38387 57.6696 3.07143 56.8214 3.07143C55.9733 3.07143 55.2857 2.38387 55.2857 1.53571C55.2857 0.687563 55.9733 0 56.8214 0C57.6696 0 58.3571 0.687563 58.3571 1.53571Z" fill="#FD8EFF"/>
<path d="M21.5 10.75C21.5 11.5982 20.8124 12.2857 19.9643 12.2857C19.1161 12.2857 18.4286 11.5982 18.4286 10.75C18.4286 9.90185 19.1161 9.21429 19.9643 9.21429C20.8124 9.21429 21.5 9.90185 21.5 10.75Z" fill="#FD8EFF"/>
<path d="M30.7143 10.75C30.7143 11.5982 30.0267 12.2857 29.1786 12.2857C28.3304 12.2857 27.6429 11.5982 27.6429 10.75C27.6429 9.90185 28.3304 9.21429 29.1786 9.21429C30.0267 9.21429 30.7143 9.90185 30.7143 10.75Z" fill="#FD8EFF"/>
<path d="M39.9286 10.75C39.9286 11.5982 39.241 12.2857 38.3929 12.2857C37.5447 12.2857 36.8571 11.5982 36.8571 10.75C36.8571 9.90185 37.5447 9.21429 38.3929 9.21429C39.241 9.21429 39.9286 9.90185 39.9286 10.75Z" fill="#FD8EFF"/>
<path d="M49.1429 10.75C49.1429 11.5982 48.4553 12.2857 47.6071 12.2857C46.759 12.2857 46.0714 11.5982 46.0714 10.75C46.0714 9.90185 46.759 9.21429 47.6071 9.21429C48.4553 9.21429 49.1429 9.90185 49.1429 10.75Z" fill="#FD8EFF"/>
<path d="M58.3571 10.75C58.3571 11.5982 57.6696 12.2857 56.8214 12.2857C55.9733 12.2857 55.2857 11.5982 55.2857 10.75C55.2857 9.90185 55.9733 9.21429 56.8214 9.21429C57.6696 9.21429 58.3571 9.90185 58.3571 10.75Z" fill="#FD8EFF"/>
<path d="M67.5714 10.75C67.5714 11.5982 66.8839 12.2857 66.0357 12.2857C65.1876 12.2857 64.5 11.5982 64.5 10.75C64.5 9.90185 65.1876 9.21429 66.0357 9.21429C66.8839 9.21429 67.5714 9.90185 67.5714 10.75Z" fill="#FD8EFF"/>
<path d="M12.2857 19.9643C12.2857 20.8124 11.5982 21.5 10.75 21.5C9.90185 21.5 9.21429 20.8124 9.21429 19.9643C9.21429 19.1161 9.90185 18.4286 10.75 18.4286C11.5982 18.4286 12.2857 19.1161 12.2857 19.9643Z" fill="#FD8EFF"/>
<path d="M21.5 19.9643C21.5 20.8124 20.8124 21.5 19.9643 21.5C19.1161 21.5 18.4286 20.8124 18.4286 19.9643C18.4286 19.1161 19.1161 18.4286 19.9643 18.4286C20.8124 18.4286 21.5 19.1161 21.5 19.9643Z" fill="#FD8EFF"/>
<path d="M30.7143 19.9643C30.7143 20.8124 30.0267 21.5 29.1786 21.5C28.3304 21.5 27.6429 20.8124 27.6429 19.9643C27.6429 19.1161 28.3304 18.4286 29.1786 18.4286C30.0267 18.4286 30.7143 19.1161 30.7143 19.9643Z" fill="#FD8EFF"/>
<path d="M39.9286 19.9643C39.9286 20.8124 39.241 21.5 38.3929 21.5C37.5447 21.5 36.8571 20.8124 36.8571 19.9643C36.8571 19.1161 37.5447 18.4286 38.3929 18.4286C39.241 18.4286 39.9286 19.1161 39.9286 19.9643Z" fill="#FD8EFF"/>
<path d="M49.1429 19.9643C49.1429 20.8124 48.4553 21.5 47.6071 21.5C46.759 21.5 46.0714 20.8124 46.0714 19.9643C46.0714 19.1161 46.759 18.4286 47.6071 18.4286C48.4553 18.4286 49.1429 19.1161 49.1429 19.9643Z" fill="#FD8EFF"/>
<path d="M58.3571 19.9643C58.3571 20.8124 57.6696 21.5 56.8214 21.5C55.9733 21.5 55.2857 20.8124 55.2857 19.9643C55.2857 19.1161 55.9733 18.4286 56.8214 18.4286C57.6696 18.4286 58.3571 19.1161 58.3571 19.9643Z" fill="#FD8EFF"/>
<path d="M67.5714 19.9643C67.5714 20.8124 66.8839 21.5 66.0357 21.5C65.1876 21.5 64.5 20.8124 64.5 19.9643C64.5 19.1161 65.1876 18.4286 66.0357 18.4286C66.8839 18.4286 67.5714 19.1161 67.5714 19.9643Z" fill="#FD8EFF"/>
<path d="M76.7857 19.9643C76.7857 20.8124 76.0981 21.5 75.25 21.5C74.4018 21.5 73.7143 20.8124 73.7143 19.9643C73.7143 19.1161 74.4018 18.4286 75.25 18.4286C76.0981 18.4286 76.7857 19.1161 76.7857 19.9643Z" fill="#FD8EFF"/>
<path d="M3.07143 29.1786C3.07143 30.0267 2.38387 30.7143 1.53571 30.7143C0.687563 30.7143 0 30.0267 0 29.1786C0 28.3304 0.687563 27.6429 1.53571 27.6429C2.38387 27.6429 3.07143 28.3304 3.07143 29.1786Z" fill="#FD8EFF"/>
<path d="M12.2857 29.1786C12.2857 30.0267 11.5982 30.7143 10.75 30.7143C9.90185 30.7143 9.21429 30.0267 9.21429 29.1786C9.21429 28.3304 9.90185 27.6429 10.75 27.6429C11.5982 27.6429 12.2857 28.3304 12.2857 29.1786Z" fill="#FD8EFF"/>
<path d="M21.5 29.1786C21.5 30.0267 20.8124 30.7143 19.9643 30.7143C19.1161 30.7143 18.4286 30.0267 18.4286 29.1786C18.4286 28.3304 19.1161 27.6429 19.9643 27.6429C20.8124 27.6429 21.5 28.3304 21.5 29.1786Z" fill="#FD8EFF"/>
<path d="M30.7143 29.1786C30.7143 30.0267 30.0267 30.7143 29.1786 30.7143C28.3304 30.7143 27.6429 30.0267 27.6429 29.1786C27.6429 28.3304 28.3304 27.6429 29.1786 27.6429C30.0267 27.6429 30.7143 28.3304 30.7143 29.1786Z" fill="#FD8EFF"/>
<path d="M39.9286 29.1786C39.9286 30.0267 39.241 30.7143 38.3929 30.7143C37.5447 30.7143 36.8571 30.0267 36.8571 29.1786C36.8571 28.3304 37.5447 27.6429 38.3929 27.6429C39.241 27.6429 39.9286 28.3304 39.9286 29.1786Z" fill="#FD8EFF"/>
<path d="M49.1429 29.1786C49.1429 30.0267 48.4553 30.7143 47.6071 30.7143C46.759 30.7143 46.0714 30.0267 46.0714 29.1786C46.0714 28.3304 46.759 27.6429 47.6071 27.6429C48.4553 27.6429 49.1429 28.3304 49.1429 29.1786Z" fill="#FD8EFF"/>
<path d="M58.3571 29.1786C58.3571 30.0267 57.6696 30.7143 56.8214 30.7143C55.9733 30.7143 55.2857 30.0267 55.2857 29.1786C55.2857 28.3304 55.9733 27.6429 56.8214 27.6429C57.6696 27.6429 58.3571 28.3304 58.3571 29.1786Z" fill="#FD8EFF"/>
<path d="M67.5714 29.1786C67.5714 30.0267 66.8839 30.7143 66.0357 30.7143C65.1876 30.7143 64.5 30.0267 64.5 29.1786C64.5 28.3304 65.1876 27.6429 66.0357 27.6429C66.8839 27.6429 67.5714 28.3304 67.5714 29.1786Z" fill="#FD8EFF"/>
<path d="M76.7857 29.1786C76.7857 30.0267 76.0981 30.7143 75.25 30.7143C74.4018 30.7143 73.7143 30.0267 73.7143 29.1786C73.7143 28.3304 74.4018 27.6429 75.25 27.6429C76.0981 27.6429 76.7857 28.3304 76.7857 29.1786Z" fill="#FD8EFF"/>
<path d="M86 29.1786C86 30.0267 85.3124 30.7143 84.4643 30.7143C83.6161 30.7143 82.9286 30.0267 82.9286 29.1786C82.9286 28.3304 83.6161 27.6429 84.4643 27.6429C85.3124 27.6429 86 28.3304 86 29.1786Z" fill="#FD8EFF"/>
<path d="M3.07143 38.3929C3.07143 39.241 2.38387 39.9286 1.53571 39.9286C0.687563 39.9286 0 39.241 0 38.3929C0 37.5447 0.687563 36.8571 1.53571 36.8571C2.38387 36.8571 3.07143 37.5447 3.07143 38.3929Z" fill="#FD8EFF"/>
<path d="M12.2857 38.3929C12.2857 39.241 11.5982 39.9286 10.75 39.9286C9.90185 39.9286 9.21429 39.241 9.21429 38.3929C9.21429 37.5447 9.90185 36.8571 10.75 36.8571C11.5982 36.8571 12.2857 37.5447 12.2857 38.3929Z" fill="#FD8EFF"/>
<path d="M21.5 38.3929C21.5 39.241 20.8124 39.9286 19.9643 39.9286C19.1161 39.9286 18.4286 39.241 18.4286 38.3929C18.4286 37.5447 19.1161 36.8571 19.9643 36.8571C20.8124 36.8571 21.5 37.5447 21.5 38.3929Z" fill="#FD8EFF"/>
<path d="M30.7143 38.3929C30.7143 39.241 30.0267 39.9286 29.1786 39.9286C28.3304 39.9286 27.6429 39.241 27.6429 38.3929C27.6429 37.5447 28.3304 36.8571 29.1786 36.8571C30.0267 36.8571 30.7143 37.5447 30.7143 38.3929Z" fill="#FD8EFF"/>
<path d="M39.9286 38.3929C39.9286 39.241 39.241 39.9286 38.3929 39.9286C37.5447 39.9286 36.8571 39.241 36.8571 38.3929C36.8571 37.5447 37.5447 36.8571 38.3929 36.8571C39.241 36.8571 39.9286 37.5447 39.9286 38.3929Z" fill="#FD8EFF"/>
<path d="M49.1429 38.3929C49.1429 39.241 48.4553 39.9286 47.6071 39.9286C46.759 39.9286 46.0714 39.241 46.0714 38.3929C46.0714 37.5447 46.759 36.8571 47.6071 36.8571C48.4553 36.8571 49.1429 37.5447 49.1429 38.3929Z" fill="#FD8EFF"/>
<path d="M58.3571 38.3929C58.3571 39.241 57.6696 39.9286 56.8214 39.9286C55.9733 39.9286 55.2857 39.241 55.2857 38.3929C55.2857 37.5447 55.9733 36.8571 56.8214 36.8571C57.6696 36.8571 58.3571 37.5447 58.3571 38.3929Z" fill="#FD8EFF"/>
<path d="M67.5714 38.3929C67.5714 39.241 66.8839 39.9286 66.0357 39.9286C65.1876 39.9286 64.5 39.241 64.5 38.3929C64.5 37.5447 65.1876 36.8571 66.0357 36.8571C66.8839 36.8571 67.5714 37.5447 67.5714 38.3929Z" fill="#FD8EFF"/>
<path d="M76.7857 38.3929C76.7857 39.241 76.0981 39.9286 75.25 39.9286C74.4018 39.9286 73.7143 39.241 73.7143 38.3929C73.7143 37.5447 74.4018 36.8571 75.25 36.8571C76.0981 36.8571 76.7857 37.5447 76.7857 38.3929Z" fill="#FD8EFF"/>
<path d="M86 38.3929C86 39.241 85.3124 39.9286 84.4643 39.9286C83.6161 39.9286 82.9286 39.241 82.9286 38.3929C82.9286 37.5447 83.6161 36.8571 84.4643 36.8571C85.3124 36.8571 86 37.5447 86 38.3929Z" fill="#FD8EFF"/>
<path d="M3.07143 47.6071C3.07143 48.4553 2.38387 49.1429 1.53571 49.1429C0.687563 49.1429 0 48.4553 0 47.6071C0 46.759 0.687563 46.0714 1.53571 46.0714C2.38387 46.0714 3.07143 46.759 3.07143 47.6071Z" fill="#FD8EFF"/>
<path d="M12.2857 47.6071C12.2857 48.4553 11.5982 49.1429 10.75 49.1429C9.90185 49.1429 9.21429 48.4553 9.21429 47.6071C9.21429 46.759 9.90185 46.0714 10.75 46.0714C11.5982 46.0714 12.2857 46.759 12.2857 47.6071Z" fill="#FD8EFF"/>
<path d="M21.5 47.6071C21.5 48.4553 20.8124 49.1429 19.9643 49.1429C19.1161 49.1429 18.4286 48.4553 18.4286 47.6071C18.4286 46.759 19.1161 46.0714 19.9643 46.0714C20.8124 46.0714 21.5 46.759 21.5 47.6071Z" fill="#FD8EFF"/>
<path d="M30.7143 47.6071C30.7143 48.4553 30.0267 49.1429 29.1786 49.1429C28.3304 49.1429 27.6429 48.4553 27.6429 47.6071C27.6429 46.759 28.3304 46.0714 29.1786 46.0714C30.0267 46.0714 30.7143 46.759 30.7143 47.6071Z" fill="#FD8EFF"/>
<path d="M39.9286 47.6071C39.9286 48.4553 39.241 49.1429 38.3929 49.1429C37.5447 49.1429 36.8571 48.4553 36.8571 47.6071C36.8571 46.759 37.5447 46.0714 38.3929 46.0714C39.241 46.0714 39.9286 46.759 39.9286 47.6071Z" fill="#FD8EFF"/>
<path d="M49.1429 47.6071C49.1429 48.4553 48.4553 49.1429 47.6071 49.1429C46.759 49.1429 46.0714 48.4553 46.0714 47.6071C46.0714 46.759 46.759 46.0714 47.6071 46.0714C48.4553 46.0714 49.1429 46.759 49.1429 47.6071Z" fill="#FD8EFF"/>
<path d="M58.3571 47.6071C58.3571 48.4553 57.6696 49.1429 56.8214 49.1429C55.9733 49.1429 55.2857 48.4553 55.2857 47.6071C55.2857 46.759 55.9733 46.0714 56.8214 46.0714C57.6696 46.0714 58.3571 46.759 58.3571 47.6071Z" fill="#FD8EFF"/>
<path d="M67.5714 47.6071C67.5714 48.4553 66.8839 49.1429 66.0357 49.1429C65.1876 49.1429 64.5 48.4553 64.5 47.6071C64.5 46.759 65.1876 46.0714 66.0357 46.0714C66.8839 46.0714 67.5714 46.759 67.5714 47.6071Z" fill="#FD8EFF"/>
<path d="M76.7857 47.6071C76.7857 48.4553 76.0981 49.1429 75.25 49.1429C74.4018 49.1429 73.7143 48.4553 73.7143 47.6071C73.7143 46.759 74.4018 46.0714 75.25 46.0714C76.0981 46.0714 76.7857 46.759 76.7857 47.6071Z" fill="#FD8EFF"/>
<path d="M86 47.6071C86 48.4553 85.3124 49.1429 84.4643 49.1429C83.6161 49.1429 82.9286 48.4553 82.9286 47.6071C82.9286 46.759 83.6161 46.0714 84.4643 46.0714C85.3124 46.0714 86 46.759 86 47.6071Z" fill="#FD8EFF"/>
<path d="M3.07143 56.8214C3.07143 57.6696 2.38387 58.3571 1.53571 58.3571C0.687563 58.3571 0 57.6696 0 56.8214C0 55.9733 0.687563 55.2857 1.53571 55.2857C2.38387 55.2857 3.07143 55.9733 3.07143 56.8214Z" fill="#FD8EFF"/>
<path d="M12.2857 56.8214C12.2857 57.6696 11.5982 58.3571 10.75 58.3571C9.90185 58.3571 9.21429 57.6696 9.21429 56.8214C9.21429 55.9733 9.90185 55.2857 10.75 55.2857C11.5982 55.2857 12.2857 55.9733 12.2857 56.8214Z" fill="#FD8EFF"/>
<path d="M21.5 56.8214C21.5 57.6696 20.8124 58.3571 19.9643 58.3571C19.1161 58.3571 18.4286 57.6696 18.4286 56.8214C18.4286 55.9733 19.1161 55.2857 19.9643 55.2857C20.8124 55.2857 21.5 55.9733 21.5 56.8214Z" fill="#FD8EFF"/>
<path d="M30.7143 56.8214C30.7143 57.6696 30.0267 58.3571 29.1786 58.3571C28.3304 58.3571 27.6429 57.6696 27.6429 56.8214C27.6429 55.9733 28.3304 55.2857 29.1786 55.2857C30.0267 55.2857 30.7143 55.9733 30.7143 56.8214Z" fill="#FD8EFF"/>
<path d="M39.9286 56.8214C39.9286 57.6696 39.241 58.3571 38.3929 58.3571C37.5447 58.3571 36.8571 57.6696 36.8571 56.8214C36.8571 55.9733 37.5447 55.2857 38.3929 55.2857C39.241 55.2857 39.9286 55.9733 39.9286 56.8214Z" fill="#FD8EFF"/>
<path d="M49.1429 56.8214C49.1429 57.6696 48.4553 58.3571 47.6071 58.3571C46.759 58.3571 46.0714 57.6696 46.0714 56.8214C46.0714 55.9733 46.759 55.2857 47.6071 55.2857C48.4553 55.2857 49.1429 55.9733 49.1429 56.8214Z" fill="#FD8EFF"/>
<path d="M58.3571 56.8214C58.3571 57.6696 57.6696 58.3571 56.8214 58.3571C55.9733 58.3571 55.2857 57.6696 55.2857 56.8214C55.2857 55.9733 55.9733 55.2857 56.8214 55.2857C57.6696 55.2857 58.3571 55.9733 58.3571 56.8214Z" fill="#FD8EFF"/>
<path d="M67.5714 56.8214C67.5714 57.6696 66.8839 58.3571 66.0357 58.3571C65.1876 58.3571 64.5 57.6696 64.5 56.8214C64.5 55.9733 65.1876 55.2857 66.0357 55.2857C66.8839 55.2857 67.5714 55.9733 67.5714 56.8214Z" fill="#FD8EFF"/>
<path d="M76.7857 56.8214C76.7857 57.6696 76.0981 58.3571 75.25 58.3571C74.4018 58.3571 73.7143 57.6696 73.7143 56.8214C73.7143 55.9733 74.4018 55.2857 75.25 55.2857C76.0981 55.2857 76.7857 55.9733 76.7857 56.8214Z" fill="#FD8EFF"/>
<path d="M86 56.8214C86 57.6696 85.3124 58.3571 84.4643 58.3571C83.6161 58.3571 82.9286 57.6696 82.9286 56.8214C82.9286 55.9733 83.6161 55.2857 84.4643 55.2857C85.3124 55.2857 86 55.9733 86 56.8214Z" fill="#FD8EFF"/>
<path d="M12.2857 66.0357C12.2857 66.8839 11.5982 67.5714 10.75 67.5714C9.90185 67.5714 9.21429 66.8839 9.21429 66.0357C9.21429 65.1876 9.90185 64.5 10.75 64.5C11.5982 64.5 12.2857 65.1876 12.2857 66.0357Z" fill="#FD8EFF"/>
<path d="M21.5 66.0357C21.5 66.8839 20.8124 67.5714 19.9643 67.5714C19.1161 67.5714 18.4286 66.8839 18.4286 66.0357C18.4286 65.1876 19.1161 64.5 19.9643 64.5C20.8124 64.5 21.5 65.1876 21.5 66.0357Z" fill="#FD8EFF"/>
<path d="M30.7143 66.0357C30.7143 66.8839 30.0267 67.5714 29.1786 67.5714C28.3304 67.5714 27.6429 66.8839 27.6429 66.0357C27.6429 65.1876 28.3304 64.5 29.1786 64.5C30.0267 64.5 30.7143 65.1876 30.7143 66.0357Z" fill="#FD8EFF"/>
<path d="M39.9286 66.0357C39.9286 66.8839 39.241 67.5714 38.3929 67.5714C37.5447 67.5714 36.8571 66.8839 36.8571 66.0357C36.8571 65.1876 37.5447 64.5 38.3929 64.5C39.241 64.5 39.9286 65.1876 39.9286 66.0357Z" fill="#FD8EFF"/>
<path d="M49.1429 66.0357C49.1429 66.8839 48.4553 67.5714 47.6071 67.5714C46.759 67.5714 46.0714 66.8839 46.0714 66.0357C46.0714 65.1876 46.759 64.5 47.6071 64.5C48.4553 64.5 49.1429 65.1876 49.1429 66.0357Z" fill="#FD8EFF"/>
<path d="M58.3571 66.0357C58.3571 66.8839 57.6696 67.5714 56.8214 67.5714C55.9733 67.5714 55.2857 66.8839 55.2857 66.0357C55.2857 65.1876 55.9733 64.5 56.8214 64.5C57.6696 64.5 58.3571 65.1876 58.3571 66.0357Z" fill="#FD8EFF"/>
<path d="M67.5714 66.0357C67.5714 66.8839 66.8839 67.5714 66.0357 67.5714C65.1876 67.5714 64.5 66.8839 64.5 66.0357C64.5 65.1876 65.1876 64.5 66.0357 64.5C66.8839 64.5 67.5714 65.1876 67.5714 66.0357Z" fill="#FD8EFF"/>
<path d="M76.7857 66.0357C76.7857 66.8839 76.0981 67.5714 75.25 67.5714C74.4018 67.5714 73.7143 66.8839 73.7143 66.0357C73.7143 65.1876 74.4018 64.5 75.25 64.5C76.0981 64.5 76.7857 65.1876 76.7857 66.0357Z" fill="#FD8EFF"/>
<path d="M21.5 75.25C21.5 76.0981 20.8124 76.7857 19.9643 76.7857C19.1161 76.7857 18.4286 76.0981 18.4286 75.25C18.4286 74.4018 19.1161 73.7143 19.9643 73.7143C20.8124 73.7143 21.5 74.4018 21.5 75.25Z" fill="#FD8EFF"/>
<path d="M30.7143 75.25C30.7143 76.0981 30.0267 76.7857 29.1786 76.7857C28.3304 76.7857 27.6429 76.0981 27.6429 75.25C27.6429 74.4018 28.3304 73.7143 29.1786 73.7143C30.0267 73.7143 30.7143 74.4018 30.7143 75.25Z" fill="#FD8EFF"/>
<path d="M39.9286 75.25C39.9286 76.0981 39.241 76.7857 38.3929 76.7857C37.5447 76.7857 36.8571 76.0981 36.8571 75.25C36.8571 74.4018 37.5447 73.7143 38.3929 73.7143C39.241 73.7143 39.9286 74.4018 39.9286 75.25Z" fill="#FD8EFF"/>
<path d="M49.1429 75.25C49.1429 76.0981 48.4553 76.7857 47.6071 76.7857C46.759 76.7857 46.0714 76.0981 46.0714 75.25C46.0714 74.4018 46.759 73.7143 47.6071 73.7143C48.4553 73.7143 49.1429 74.4018 49.1429 75.25Z" fill="#FD8EFF"/>
<path d="M58.3571 75.25C58.3571 76.0981 57.6696 76.7857 56.8214 76.7857C55.9733 76.7857 55.2857 76.0981 55.2857 75.25C55.2857 74.4018 55.9733 73.7143 56.8214 73.7143C57.6696 73.7143 58.3571 74.4018 58.3571 75.25Z" fill="#FD8EFF"/>
<path d="M67.5714 75.25C67.5714 76.0981 66.8839 76.7857 66.0357 76.7857C65.1876 76.7857 64.5 76.0981 64.5 75.25C64.5 74.4018 65.1876 73.7143 66.0357 73.7143C66.8839 73.7143 67.5714 74.4018 67.5714 75.25Z" fill="#FD8EFF"/>
<path d="M30.7143 84.4643C30.7143 85.3124 30.0267 86 29.1786 86C28.3304 86 27.6429 85.3124 27.6429 84.4643C27.6429 83.6161 28.3304 82.9286 29.1786 82.9286C30.0267 82.9286 30.7143 83.6161 30.7143 84.4643Z" fill="#FD8EFF"/>
<path d="M39.9286 84.4643C39.9286 85.3124 39.241 86 38.3929 86C37.5447 86 36.8571 85.3124 36.8571 84.4643C36.8571 83.6161 37.5447 82.9286 38.3929 82.9286C39.241 82.9286 39.9286 83.6161 39.9286 84.4643Z" fill="#FD8EFF"/>
<path d="M49.1429 84.4643C49.1429 85.3124 48.4553 86 47.6071 86C46.759 86 46.0714 85.3124 46.0714 84.4643C46.0714 83.6161 46.759 82.9286 47.6071 82.9286C48.4553 82.9286 49.1429 83.6161 49.1429 84.4643Z" fill="#FD8EFF"/>
<path d="M58.3571 84.4643C58.3571 85.3124 57.6696 86 56.8214 86C55.9733 86 55.2857 85.3124 55.2857 84.4643C55.2857 83.6161 55.9733 82.9286 56.8214 82.9286C57.6696 82.9286 58.3571 83.6161 58.3571 84.4643Z" fill="#FD8EFF"/>
</svg>
