<svg width="294" height="201" viewBox="0 0 294 201" fill="none" xmlns="http://www.w3.org/2000/svg">
<path d="M2 198.5C2 198.5 11.5871 170 31.5 170C51.4129 170 61.5871 198.5 81.5 198.5C101.413 198.5 111.587 170 131.5 170C151.413 170 161.587 198.5 181.5 198.5C201.413 198.5 198.5 170 231.5 170C264.5 170 292 188 292 188" stroke="#F0EA63" stroke-width="4" stroke-linecap="round"/>
<path d="M2 142.5C2 142.5 11.5871 114 31.5 114C51.4129 114 61.5871 142.5 81.5 142.5C101.413 142.5 111.587 114 131.5 114C151.413 114 161.587 142.5 181.5 142.5C201.413 142.5 198.5 114 231.5 114C264.5 114 292 132 292 132" stroke="#F0EA63" stroke-width="4" stroke-linecap="round"/>
<path d="M2 86.5C2 86.5 11.5871 58 31.5 58C51.4129 58 61.5871 86.5 81.5 86.5C101.413 86.5 111.587 58 131.5 58C151.413 58 161.587 86.5 181.5 86.5C201.413 86.5 198.5 58 231.5 58C264.5 58 292 76 292 76" stroke="#F0EA63" stroke-width="4" stroke-linecap="round"/>
<path d="M2 30.5C2 30.5 11.5871 2 31.5 2C51.4129 2 61.5871 30.5 81.5 30.5C101.413 30.5 111.587 2 131.5 2C151.413 2 161.587 30.5 181.5 30.5C201.413 30.5 198.5 2 231.5 2C264.5 2 292 20 292 20" stroke="#F0EA63" stroke-width="4" stroke-linecap="round"/>
</svg>
