<svg width="75" height="46" viewBox="0 0 75 46" fill="none" xmlns="http://www.w3.org/2000/svg">
<path fill-rule="evenodd" clip-rule="evenodd" d="M19.0505 0L19.6514 0.513716L28.2752 7.88547L36.899 0.513716L37.5 0L38.101 0.513716L46.7248 7.88547L55.3485 0.513716L55.9495 0L56.5505 0.513716L65.1743 7.88547L73.7981 0.513716L75 3.78996L65.7752 11.6754L65.1743 12.1892L64.5733 11.6754L55.9495 4.30368L47.3257 11.6754L46.7248 12.1892L46.1238 11.6754L37.5 4.30368L28.8762 11.6754L28.2752 12.1892L27.6743 11.6754L19.0505 4.30368L10.4267 11.6754L9.82572 12.1892L9.22476 11.6754L0 3.78996L1.20193 0.513716L9.82572 7.88547L18.4495 0.513716L19.0505 0ZM19.0505 16.9054L19.6514 17.4191L28.2752 24.7909L36.899 17.4191L37.5 16.9054L38.101 17.4191L46.7248 24.7909L55.3485 17.4191L55.9495 16.9054L56.5505 17.4191L65.1743 24.7909L73.7981 17.4191L75 20.6954L65.7752 28.5809L65.1743 29.0946L64.5733 28.5809L55.9495 21.2091L47.3257 28.5809L46.7248 29.0946L46.1238 28.5809L37.5 21.2091L28.8762 28.5809L28.2752 29.0946L27.6743 28.5809L19.0505 21.2091L10.4267 28.5809L9.82572 29.0946L9.22476 28.5809L0 20.6954L1.20193 17.4191L9.82572 24.7909L18.4495 17.4191L19.0505 16.9054ZM19.6514 34.3246L19.0505 33.8108L18.4495 34.3246L9.82572 41.6963L1.20193 34.3246L0 37.6008L9.22476 45.4863L9.82572 46L10.4267 45.4863L19.0505 38.1145L27.6743 45.4863L28.2752 46L28.8762 45.4863L37.5 38.1145L46.1238 45.4863L46.7248 46L47.3257 45.4863L55.9495 38.1145L64.5733 45.4863L65.1743 46L65.7752 45.4863L75 37.6008L73.7981 34.3246L65.1743 41.6963L56.5505 34.3246L55.9495 33.8108L55.3485 34.3246L46.7248 41.6963L38.101 34.3246L37.5 33.8108L36.899 34.3246L28.2752 41.6963L19.6514 34.3246Z" fill="#949bff"/>
</svg>
